PathFileType	4	(X/Y/Z)	D:\TRACE\v60_Jaco2_6-2-23\JustBodyDRS_Motion3_4-v60.trc
DataRate	CameraRate	NumFrames	NumMarkers	Units	OrigDataRate	OrigDataStartFrame	OrigNumFrames
100.00	100.00	      17	9	mm	100.00	2626	      7000
Frame#	Time	front left toe			Front right toe			aft left toe			aft right toe			Arm			FL body			FR body			AL Body			AR Body			
		X1	Y1	Z1	X2	Y2	Z2	X3	Y3	Z3	X4	Y4	Z4	X5	Y5	Z5	X6	Y6	Z6	X7	Y7	Z7	X8	Y8	Z8	X9	Y9	Z9	

2626	26.250	-206.34883	28.42183	-69.90585	155.31448	36.19936	-59.74166	-214.05905	-33.20043	563.07111	176.97224	-39.70439	541.87689	-0.57590	1218.47131	-15.50388	-90.29758	605.99719	-204.17505	68.27833	604.82391	-204.54312	-83.03140	480.09531	732.07294	68.36896	468.90884	729.25439	
2627	26.260	-206.44421	28.38148	-70.11757	153.17654	45.37734	-59.21362	-208.60236	-24.88469	561.89984	177.52739	-39.65203	541.32214	0.20483	1219.18958	-14.74314	-90.05226	607.15790	-205.05219	68.51458	605.53149	-205.21544	-83.39505	479.78040	731.03723	68.58421	468.65164	728.42114	
2628	26.270	-206.72290	28.27670	-70.21674	153.34105	56.27423	-60.29637	-205.81917	-14.80194	559.81439	177.06871	-39.29293	541.54901	1.29012	1219.81482	-13.51822	-89.92902	607.57526	-205.98564	68.75199	605.94489	-206.39224	-82.97339	480.07660	730.11658	68.72226	468.87878	727.28796	
2629	26.280	-206.72989	27.89456	-70.43703	154.89030	68.83346	-63.16990	-204.09419	-3.07210	557.05017	177.11832	-39.14834	541.54443	2.29618	1220.31628	-12.88189	-90.05308	607.95374	-206.52428	68.67253	605.89093	-207.04688	-81.81364	479.78186	729.07361	73.97716	468.66418	726.43073	
2630	26.290	-206.67365	27.96861	-70.47428	157.33830	82.35772	-66.65830	-205.39867	9.15995	554.93030	178.08150	-39.02684	541.25500	2.92511	1220.50964	-13.37068	-90.25324	608.29218	-207.20554	67.94105	606.84296	-207.92586	-81.60846	479.15775	728.63422	74.49760	468.20828	725.58966	
2631	26.300	-206.69708	27.74006	-70.47295	160.21909	95.92830	-70.48110	-206.77794	22.29887	550.98755	178.38997	-39.06943	541.08759	2.89688	1220.29028	-14.29757	-90.67741	608.57288	-207.88907	67.72813	607.11194	-208.68346	-80.56060	478.40976	727.99457	75.27543	467.35452	724.78186	
2632	26.310	-206.81047	27.56276	-70.45461	162.92903	109.00108	-73.82043	-207.13350	34.58167	547.76074	178.55891	-38.70659	541.06268	1.76108	1219.79163	-15.12789	-90.81787	608.41901	-208.05167	67.64201	606.98816	-209.08286	-79.72547	477.67972	727.08490	75.57162	466.71335	723.84119	
2633	26.320	-206.91638	27.42833	-70.47168	164.77646	121.66238	-76.59204	-206.86032	46.62370	545.07263	178.64368	-38.50782	541.06641	0.72097	1219.79529	-15.53772	-91.14689	608.44006	-208.84097	67.28184	606.92316	-210.01508	-79.40490	477.29446	726.18652	76.17874	466.29034	722.94189	
2634	26.330	-207.00568	27.31841	-70.65181	166.15401	133.44159	-79.14240	-205.13289	57.98158	542.90497	178.69493	-38.32821	540.90137	-0.79193	1219.84766	-15.63839	-91.23739	608.23175	-209.63023	67.07941	606.76123	-210.86147	-78.48724	477.26968	725.65894	77.08340	466.48837	722.16174	
2635	26.340	-206.96040	27.16069	-70.77160	166.21298	143.95528	-82.38712	-203.29289	68.64163	541.12030	178.62621	-38.15287	540.71429	-1.57872	1219.93518	-16.18718	-91.58711	608.03662	-210.35437	67.25280	606.62604	-211.69786	-77.89209	477.70520	725.54553	77.86238	466.54874	721.53375	
2636	26.350	-206.97249	27.00425	-70.86921	166.29315	152.14163	-84.58447	-201.09776	77.40369	539.45087	178.62741	-38.01014	540.59259	-1.80249	1219.59851	-16.83316	-91.91432	607.41583	-210.84703	66.34137	606.25055	-212.32597	-77.41565	477.65402	724.52997	78.05608	466.68781	720.71332	
2637	26.360	-207.01004	26.83401	-70.79315	168.07976	157.78235	-85.71661	-200.47133	83.85592	537.30322	178.63028	-37.89628	540.48590	-1.88152	1219.13098	-18.25906	-92.44563	607.21234	-211.38791	65.87640	605.87811	-212.89177	-77.14357	477.61182	724.40997	78.48489	466.83694	720.25415	
2638	26.370	-207.01917	26.64105	-70.73040	169.14674	160.94014	-86.98542	-200.45145	87.65032	536.00201	178.73010	-37.71672	540.30261	-1.77210	1218.78821	-19.34019	-92.97158	606.99670	-211.73132	65.48309	605.69354	-213.28323	-76.42895	477.54373	724.20892	79.31999	466.96899	719.78400	
2639	26.380	-207.04221	26.55675	-70.75269	170.16272	161.15274	-87.90359	-200.40677	87.72330	535.44275	178.80550	-37.55037	540.18958	-2.04545	1218.69568	-20.59880	-93.60283	606.53601	-212.07761	64.91440	605.53198	-213.90199	-75.70808	477.81290	723.56512	80.48318	467.34222	719.21887	
2640	26.390	-207.13663	26.56186	-70.90173	170.46474	158.01343	-89.00873	-200.25417	86.03170	534.92413	178.83998	-37.48278	540.16400	-2.25409	1218.68152	-21.30337	-93.93620	606.19067	-212.36069	64.51172	605.17407	-214.66747	-75.02741	478.61929	723.24292	80.19958	467.80319	718.80658	
2641	26.400	-207.24692	26.55019	-70.95477	171.30489	153.74988	-89.30296	-199.27196	82.47520	534.81506	178.81091	-37.32987	540.08209	-2.99234	1218.75403	-22.17045	-94.48260	606.06311	-212.87341	64.18861	604.94916	-215.06389	-74.76227	478.99490	723.11249	80.75941	468.24222	718.29199	
2642	26.410	-207.42497	26.46308	-70.92246	170.70752	148.03964	-90.20412	-199.27991	77.83449	535.00568	178.65271	-37.04417	540.04608	-3.45161	1218.72510	-22.52082	-94.88791	606.01801	-213.24063	63.25891	604.79309	-215.63957	-74.25024	479.21994	722.56396	81.03607	468.64828	717.68359	
